# xmcd
#
# Track frame offsets:
# 150
# 16081
# 32416
# 47032
# 60211
# 76906
# 91087
# 105077
# 115476
# 128002
# 144615
# 153355
# 165735
# 186018
# 199503
# 219043
# 245940
# 258315
# 273931
# 285676
#
# Disc length: 4044 seconds
#
#
# Revision: 0
# Processed by: cddbd v1.5.2PL0 Copyright (c) Steve Scherf et al.
# Submitted via: FreeRIP 2.96 
#
DISCID=fd0fca14
DTITLE=Tradição - Seleção de ouro Vol 2
DYEAR=2006
DGENRE=Soundtrack
TTITLE0=Barquinho
TTITLE1=Campeão de bilheteria
TTITLE2=Bendito seja
TTITLE3=O caldeirão
TTITLE4=Rainha do baile
TTITLE5=Garçom amigo
TTITLE6=Tikatum
TTITLE7=Baile da negra touro
TTITLE8=Eu ja biquei
TTITLE9=No barulho da sanfona
TTITLE10=Bica que bica
TTITLE11=Pode rebolar
TTITLE12=Senhorita
TTITLE13=Pé com pé
TTITLE14=Habaneira das meninas carinhosas
TTITLE15=Pout pourri - Ajoelha e chora - Pra lá de Bagdá - Mulher boa
TTITLE16=Som de cristal
TTITLE17=Pout pourri - Vou beber de novo princesa
TTITLE18=Não chore china véia
TTITLE19=Brasileira
EXTD=PiratCorp S/A
EXTT0=
EXTT1=
EXTT2=
EXTT3=
EXTT4=
EXTT5=
EXTT6=
EXTT7=
EXTT8=
EXTT9=
EXTT10=
EXTT11=
EXTT12=
EXTT13=
EXTT14=
EXTT15=
EXTT16=
EXTT17=
EXTT18=
EXTT19=
PLAYORDER=
